# xmcd CD database file
#
# Track frame offsets:
#	150
#	14484
#	27970
#	38984
#	48422
#	63370
#	80845
#	101005
#	112487
#	123757
#	135463
#	145213
#	156715
#	174934
#	184868
#	202760
#	214291
#	226335
#
# Disc length: 3207 seconds
#
# Revision: 1
# Processed by: cddbd v1.5.2PL0 Copyright (c) Steve Scherf et al.
# Submitted via: CDex 1.70beta2
#
DISCID=060c8512
DTITLE=Various Artist - The Very Best Of Country [CD1]
DYEAR=1900
DGENRE=Country
TTITLE0=Rhinestone Cowboy
TTITLE1=Ruby Don't Take Your Love to Town
TTITLE2=Big Mamou
TTITLE3=The Race Is On
TTITLE4=Crying
TTITLE5=Jambalya
TTITLE6=Medley
TTITLE7=Touch Me
TTITLE8=It Wasn't God How Make Honky Tonk Angels
TTITLE9=Oh Lonesome Me
TTITLE10=Six Days On The Road
TTITLE11=Take This Job and Shove It
TTITLE12=Footlights
TTITLE13=Try a Little Kindness
TTITLE14=Good Ole Boys Like Me
TTITLE15=Kaw Ligahank
TTITLE16=I'll Go On Alone
TTITLE17=Mule Train
EXTD=
EXTT0=
EXTT1=
EXTT2=
EXTT3=
EXTT4=
EXTT5=
EXTT6=
EXTT7=
EXTT8=
EXTT9=
EXTT10=
EXTT11=
EXTT12=
EXTT13=
EXTT14=
EXTT15=
EXTT16=
EXTT17=
PLAYORDER=
